<?xml version="1.0" encoding="utf-8"?>
<!DOCTYPE svg PUBLIC "-//W3C//DTD SVG 20010904//EN" "http://www.w3.org/TR/2001/REC-SVG-20010904/DTD/svg10.dtd">
<svg version="1.0" xmlns="http://www.w3.org/2000/svg" width="1186pt" height="866pt" viewBox="0 0 1186 866" style="" preserveAspectRatio="xMidYMid meet">
<g fill="#E8BAB8FE" stroke="#E8BAB8FE">
<path d="M 584.070 235.135 C 570.344 237.412 550.762 244.019 541.290 249.570 C 513.491 265.861 492.844 290.750 483.180 319.616 C 463.490 378.428 486.483 438.449 539.500 466.639 C 550.102 472.276 566.217 477.572 578.864 479.575 C 593.995 481.972 626.604 481.188 640.873 478.084 C 658.656 474.217 678.442 465.776 693.500 455.635 C 707.255 446.370 725.583 425.613 733.093 410.793 C 740.177 396.815 744.250 379.127 744.212 362.500 C 744.191 352.986 742.334 337.269 740.414 330.346 C 739.964 328.722 740.350 328.024 741.984 327.505 C 743.176 327.127 743.948 326.614 743.700 326.366 C 743.452 326.118 740.605 327.079 737.374 328.501 C 732.424 330.680 728.450 334.152 712.115 350.564 L 692.731 370.042 685.968 362.771 C 680.882 357.303 679.466 355.180 680.257 354.211 C 680.836 353.503 688.077 347.428 696.348 340.711 C 721.617 320.194 724.401 317.600 728.926 310.357 C 731.283 306.586 732.866 303.835 732.444 304.244 C 732.023 304.654 730.207 301.954 728.409 298.244 C 726.610 294.535 722.166 287.900 718.532 283.500 C 697.333 257.834 666.363 240.774 631.407 235.505 C 620.522 233.864 593.024 233.649 584.070 235.135 M 600.842 241.095 C 604.197 242.264 611.828 251.598 616.609 260.380 C 619.898 266.420 622.960 277.914 622.983 284.303 C 623.005 290.486 620.315 302.389 617.751 307.455 C 615.302 312.295 606.407 321.781 599.000 327.451 C 595.975 329.767 588.781 334.321 583.014 337.570 C 544.147 359.469 528.132 386.029 533.379 419.890 C 536.114 437.542 546.654 452.808 561.556 460.702 C 569.700 465.017 583.751 469.569 593.500 471.052 C 605.156 472.825 605.461 474.301 594.000 473.471 C 540.689 469.611 499.883 435.669 490.023 386.983 C 487.641 375.221 487.148 354.798 488.945 342.292 C 491.116 327.181 499.133 306.591 507.797 293.871 C 527.609 264.782 553.551 247.706 587.306 241.532 C 596.668 239.820 597.141 239.805 600.842 241.095 M 676.881 355.750 C 678.484 357.263 682.318 361.311 685.402 364.746 C 688.485 368.181 691.344 370.994 691.754 370.996 C 692.164 370.998 692.512 371.338 692.526 371.750 C 692.540 372.163 693.360 373.707 694.347 375.183 C 697.656 380.129 693.303 384.002 688.341 380.526 C 686.323 379.113 686.054 379.368 681.772 386.776 C 670.365 406.511 654.350 432.171 649.377 438.683 C 638.139 453.397 630.034 458.235 616.000 458.605 L 607.500 458.828 615.500 458.103 C 629.100 456.870 638.818 450.442 649.249 435.781 C 654.342 428.623 682.313 383.407 683.292 380.750 C 684.382 377.794 682.505 378.810 680.447 382.291 C 679.376 384.102 673.590 392.764 667.590 401.541 C 643.795 436.347 634.494 447.182 623.731 452.637 C 617.901 455.591 605.060 457.939 600.245 456.932 C 595.164 455.868 590.304 451.960 587.275 446.500 C 584.931 442.277 584.500 440.331 584.500 433.979 C 584.500 414.940 598.055 401.633 641.000 378.513 C 648.975 374.220 658.582 368.926 662.348 366.750 C 668.856 362.991 669.173 362.637 668.718 359.647 C 667.698 352.938 671.819 350.970 676.881 355.750 M 679.202 381.571 C 677.640 383.732 670.019 394.950 662.266 406.500 C 646.868 429.438 637.643 440.889 630.104 446.424 C 620.602 453.398 609.193 457.080 601.986 455.497 C 598.857 454.810 598.928 454.747 605.214 452.631 C 614.361 449.553 623.200 443.402 633.019 433.281 C 642.552 423.454 659.606 403.379 665.540 395.000 C 673.639 383.563 680.236 375.836 681.133 376.733 C 681.678 377.278 680.905 379.215 679.202 381.571 "/></g>
<g fill="#362216FE" stroke="#362216FE">
<path d="M 763.000 493.004 C 751.791 494.517 740.691 500.213 733.615 508.084 C 713.410 530.556 719.300 565.729 745.610 579.719 C 753.974 584.166 761.832 586.000 772.529 586.000 C 795.272 586.000 812.126 574.380 819.022 553.946 C 820.851 548.528 821.135 545.826 820.809 537.000 C 820.463 527.645 820.068 525.770 817.184 519.802 C 810.321 505.599 798.208 496.626 781.662 493.487 C 773.278 491.896 771.543 491.852 763.000 493.004 M 782.316 510.592 C 788.545 512.715 796.726 520.215 799.643 526.480 C 801.435 530.328 801.983 533.251 801.989 539.000 C 802.005 551.846 795.524 562.101 784.051 567.385 C 777.002 570.631 764.195 570.362 757.460 566.825 C 746.063 560.841 740.362 550.584 741.230 537.621 C 742.393 520.254 753.952 509.188 771.072 509.052 C 774.686 509.023 779.746 509.716 782.316 510.592 "/></g>
<g fill="#362216FE" stroke="#362216FE">
<path d="M 386.405 497.327 L 383.500 499.825 383.186 537.162 C 382.856 576.310 383.255 580.996 387.094 583.050 C 389.502 584.339 429.159 584.389 433.623 583.108 C 443.460 580.287 449.848 573.969 452.021 564.911 C 454.612 554.111 449.431 542.381 440.589 539.030 L 437.678 537.927 440.727 534.714 C 445.402 529.786 447.000 525.788 447.000 519.018 C 447.000 509.074 442.989 502.224 434.500 497.672 C 430.855 495.717 428.673 495.495 409.905 495.178 L 389.310 494.829 386.405 497.327 M 431.006 548.003 C 435.615 550.355 437.052 552.640 437.264 557.960 C 437.470 563.140 435.369 566.771 430.822 569.091 C 427.665 570.701 424.884 571.000 413.040 571.000 L 399.000 571.000 399.000 558.500 L 399.000 546.000 413.040 546.000 C 425.114 546.000 427.629 546.280 431.006 548.003 M 425.510 509.440 C 429.290 511.019 432.990 516.165 432.996 519.849 C 433.003 524.313 429.996 528.824 425.591 530.956 C 422.110 532.641 419.405 533.000 410.184 533.000 L 399.000 533.000 399.000 520.500 L 399.000 508.000 410.532 508.000 C 418.306 508.000 423.187 508.469 425.510 509.440 "/></g>
<g fill="#362216FE" stroke="#362216FE">
<path d="M 669.155 354.750 C 668.651 355.713 668.455 357.916 668.718 359.647 C 669.173 362.637 668.856 362.991 662.348 366.750 C 658.582 368.926 648.975 374.220 641.000 378.513 C 608.180 396.182 593.981 407.199 587.771 419.813 C 584.955 425.533 584.500 427.504 584.500 433.979 C 584.500 440.331 584.931 442.277 587.275 446.500 C 590.304 451.960 595.164 455.868 600.245 456.932 C 605.060 457.939 617.901 455.591 623.731 452.637 C 634.494 447.182 643.795 436.347 667.590 401.541 C 673.590 392.764 679.376 384.102 680.447 382.291 C 682.505 378.810 684.382 377.794 683.292 380.750 C 682.313 383.407 654.342 428.623 649.249 435.781 C 638.818 450.442 629.100 456.870 615.500 458.103 L 607.500 458.828 616.000 458.605 C 630.034 458.235 638.139 453.397 649.377 438.683 C 654.350 432.171 670.365 406.511 681.772 386.776 C 686.054 379.368 686.323 379.113 688.341 380.526 C 689.498 381.337 691.229 382.000 692.187 382.000 C 694.344 382.000 696.364 378.468 695.292 376.570 C 693.830 373.981 676.520 354.819 674.816 353.904 C 672.227 352.515 670.163 352.823 669.155 354.750 M 672.500 366.000 C 672.840 366.550 672.641 367.000 672.059 367.000 C 671.477 367.000 671.113 367.563 671.250 368.250 C 671.388 368.938 670.790 369.507 669.922 369.516 C 669.054 369.525 668.470 369.975 668.624 370.516 C 669.207 372.562 637.664 395.860 625.190 402.597 C 613.003 409.179 604.234 416.506 598.499 424.899 C 595.835 428.798 593.924 432.258 594.254 432.587 C 594.583 432.916 595.577 431.786 596.462 430.074 C 598.855 425.446 610.295 413.709 616.268 409.754 C 619.146 407.849 626.000 403.688 631.500 400.508 C 637.000 397.329 643.843 392.988 646.707 390.864 C 652.803 386.340 654.322 385.919 650.924 389.693 C 648.684 392.181 655.533 386.412 668.734 374.692 C 674.080 369.945 676.228 369.264 676.785 372.136 C 677.045 373.473 641.329 408.916 619.277 429.206 C 609.141 438.531 595.174 449.225 593.749 448.750 C 592.398 448.299 603.565 433.691 612.615 424.071 C 616.736 419.690 624.450 412.594 629.755 408.303 C 635.061 404.011 641.449 398.540 643.951 396.145 C 647.861 392.401 647.307 392.675 640.000 398.100 C 620.696 412.432 601.708 430.944 594.806 442.160 C 593.169 444.822 591.408 447.000 590.895 447.000 C 589.842 447.000 590.595 443.155 592.633 438.128 C 594.410 433.743 594.317 432.863 592.408 436.000 L 590.886 438.500 591.472 435.709 C 592.521 430.716 595.929 422.504 598.888 417.838 C 602.453 412.216 612.985 404.261 638.669 387.792 C 662.713 372.374 662.606 372.449 656.057 375.606 C 649.023 378.996 618.819 398.525 608.721 406.212 C 597.219 414.968 592.039 423.015 588.760 437.221 C 587.079 444.504 585.743 442.985 586.147 434.250 C 587.034 415.046 599.908 402.948 645.500 378.475 C 656.500 372.570 666.388 367.123 667.473 366.370 C 669.804 364.750 671.644 364.615 672.500 366.000 M 658.994 400.500 C 630.694 435.046 620.411 444.709 606.358 449.967 C 600.828 452.036 595.000 452.661 595.000 451.184 C 595.000 450.735 596.863 449.321 599.140 448.041 C 604.983 444.758 615.067 435.935 633.000 418.415 C 641.525 410.086 653.450 398.885 659.500 393.522 C 665.550 388.159 672.075 381.991 674.000 379.816 C 675.925 377.640 677.207 376.679 676.849 377.680 C 676.491 378.681 668.457 388.950 658.994 400.500 "/></g>
<g fill="#362216FE" stroke="#362216FE">
<path d="M 498.767 496.865 C 497.441 498.441 492.935 507.329 488.755 516.615 C 484.575 525.902 477.036 542.647 472.002 553.827 C 466.968 565.008 462.623 575.583 462.346 577.327 C 461.672 581.577 464.812 585.000 469.384 585.000 C 473.425 585.000 474.729 583.599 479.411 574.231 L 483.044 566.962 505.181 567.231 L 527.317 567.500 530.073 573.993 C 533.628 582.372 535.992 585.000 539.970 585.000 C 543.432 585.000 548.000 581.227 548.000 578.368 C 548.000 577.420 542.214 564.012 535.142 548.573 C 528.071 533.133 520.083 515.613 517.392 509.639 C 511.529 496.622 509.390 494.000 504.637 494.000 C 502.057 494.000 500.565 494.729 498.767 496.865 M 508.219 524.277 C 513.116 535.484 520.000 551.971 520.000 552.491 C 520.000 552.771 513.025 553.000 504.500 553.000 C 495.975 553.000 489.000 552.830 489.000 552.621 C 489.000 552.244 500.551 525.993 503.024 520.750 C 503.737 519.238 504.586 518.012 504.911 518.027 C 505.235 518.042 506.724 520.854 508.219 524.277 "/></g>
<g fill="#362216FE" stroke="#362216FE">
<path d="M 565.400 495.436 C 563.694 496.174 562.007 497.539 561.650 498.471 C 561.292 499.402 561.000 518.066 561.000 539.947 C 561.000 578.680 561.055 579.800 563.073 582.365 C 564.444 584.109 566.108 585.000 567.991 585.000 C 575.107 585.000 576.986 581.634 577.036 568.800 L 577.073 559.500 582.493 553.750 C 585.474 550.588 588.270 548.035 588.707 548.078 C 589.143 548.121 594.598 554.344 600.828 561.907 C 616.269 580.650 620.614 585.000 623.896 585.000 C 629.795 585.000 633.800 578.362 630.709 573.709 C 629.901 572.494 622.693 563.867 614.690 554.538 C 606.101 544.526 600.417 537.092 600.819 536.395 C 601.194 535.746 608.138 528.400 616.250 520.070 C 632.483 503.402 633.514 501.423 628.545 496.455 C 623.511 491.420 621.940 492.486 598.079 517.114 C 586.902 528.651 577.555 537.888 577.308 537.641 C 577.061 537.394 576.901 528.861 576.952 518.679 C 577.043 500.759 576.973 500.085 574.773 497.663 C 571.811 494.403 569.214 493.786 565.400 495.436 "/></g>
<g fill="#362216FE" stroke="#362216FE">
<path d="M 649.924 497.580 L 647.500 500.159 647.217 538.963 L 646.933 577.767 649.556 580.884 L 652.178 584.000 679.655 584.000 C 695.564 584.000 707.897 583.590 708.951 583.026 C 712.487 581.134 712.272 574.217 708.600 571.765 C 707.995 571.361 697.474 571.024 685.219 571.015 L 662.938 571.000 663.219 558.750 L 663.500 546.500 682.146 546.228 C 701.966 545.940 702.242 545.869 703.515 540.795 C 704.044 538.690 703.634 537.543 701.641 535.550 C 699.096 533.005 699.056 533.000 681.045 533.000 L 663.000 533.000 663.000 521.000 L 663.000 509.000 683.532 509.000 C 708.438 509.000 711.000 508.357 711.000 502.108 C 711.000 495.117 710.479 495.000 679.452 495.000 L 652.349 495.000 649.924 497.580 "/></g>
<g fill="#362216FE" stroke="#362216FE">
<path d="M 770.746 275.043 C 757.203 278.390 740.611 292.293 729.317 309.760 C 725.028 316.392 721.871 319.742 713.300 326.760 C 707.428 331.567 697.260 339.935 690.704 345.356 L 678.784 355.212 683.235 359.856 C 685.684 362.410 688.801 365.758 690.163 367.295 L 692.639 370.090 712.569 350.207 C 730.368 332.450 733.142 330.074 738.500 327.995 C 754.038 321.965 764.236 315.527 774.282 305.404 C 785.100 294.503 789.571 282.104 784.500 277.072 C 782.095 274.686 775.893 273.771 770.746 275.043 "/></g>
<g fill="#E8BAB8FE" stroke="#E8BAB8FE">
<path d="M 667.473 366.370 C 666.388 367.123 656.500 372.570 645.500 378.475 C 599.908 402.948 587.034 415.046 586.147 434.250 C 585.743 442.985 587.079 444.504 588.760 437.221 C 592.039 423.015 597.219 414.968 608.721 406.212 C 618.819 398.525 649.023 378.996 656.057 375.606 C 662.606 372.449 662.713 372.374 638.669 387.792 C 612.985 404.261 602.453 412.216 598.888 417.838 C 595.929 422.504 592.521 430.716 591.472 435.709 L 590.886 438.500 592.408 436.000 C 594.317 432.863 594.410 433.743 592.633 438.128 C 590.595 443.155 589.842 447.000 590.895 447.000 C 591.408 447.000 593.169 444.822 594.806 442.160 C 601.708 430.944 620.696 412.432 640.000 398.100 C 647.307 392.675 647.861 392.401 643.951 396.145 C 641.449 398.540 635.061 404.011 629.755 408.303 C 624.450 412.594 616.736 419.690 612.615 424.071 C 603.613 433.640 592.395 448.298 593.733 448.744 C 595.018 449.173 605.761 441.253 614.947 433.105 C 626.460 422.893 661.526 388.713 661.290 387.933 C 661.174 387.551 661.962 386.440 663.040 385.464 C 664.118 384.488 665.000 384.076 665.000 384.548 C 665.000 385.020 666.789 383.659 668.975 381.525 C 672.064 378.508 672.700 377.344 671.831 376.297 C 670.904 375.179 670.397 375.235 668.857 376.630 C 667.835 377.554 667.000 377.985 667.000 377.587 C 667.000 377.189 665.645 377.829 663.988 379.008 C 662.332 380.188 661.276 381.638 661.643 382.231 C 662.019 382.840 661.845 383.022 661.241 382.649 C 660.654 382.286 657.547 384.338 654.337 387.209 C 651.126 390.079 649.591 391.207 650.924 389.714 C 654.310 385.924 652.816 386.331 646.707 390.864 C 643.843 392.988 637.000 397.329 631.500 400.508 C 626.000 403.688 619.146 407.849 616.268 409.754 C 610.295 413.709 598.855 425.446 596.462 430.074 C 595.577 431.786 594.583 432.916 594.254 432.587 C 593.924 432.258 595.835 428.798 598.499 424.899 C 604.234 416.506 613.003 409.179 625.190 402.597 C 637.664 395.860 669.207 372.562 668.624 370.516 C 668.470 369.975 669.054 369.525 669.922 369.516 C 670.790 369.507 671.388 368.938 671.250 368.250 C 671.113 367.563 671.477 367.000 672.059 367.000 C 672.641 367.000 672.840 366.550 672.500 366.000 C 671.644 364.615 669.804 364.750 667.473 366.370 "/></g>
<g fill="#E8BAB8FE" stroke="#E8BAB8FE">
<path d="M 385.000 616.000 L 385.000 627.000 412.000 627.000 L 439.000 627.000 439.000 616.000 L 439.000 605.000 412.000 605.000 L 385.000 605.000 385.000 616.000 "/></g>
<g fill="#E8BAB8FE" stroke="#E8BAB8FE">
<path d="M 674.000 379.816 C 672.075 381.991 665.550 388.159 659.500 393.522 C 653.450 398.885 641.525 410.086 633.000 418.415 C 615.067 435.935 604.983 444.758 599.140 448.041 C 594.250 450.790 593.890 452.000 597.962 452.000 C 606.803 452.000 620.946 443.403 633.081 430.652 C 642.946 420.286 675.857 380.455 676.849 377.680 C 677.207 376.679 675.925 377.640 674.000 379.816 "/></g>
<g fill="#E8BAB8FE" stroke="#E8BAB8FE">
<path d="M 674.830 382.662 C 671.863 386.423 667.682 391.975 665.540 395.000 C 659.606 403.379 642.552 423.454 633.019 433.281 C 623.200 443.402 614.361 449.553 605.214 452.631 C 598.928 454.747 598.857 454.810 601.986 455.497 C 609.193 457.080 620.602 453.398 630.104 446.424 C 637.643 440.889 646.868 429.438 662.266 406.500 C 670.019 394.950 677.640 383.732 679.202 381.571 C 680.905 379.215 681.678 377.278 681.133 376.733 C 680.589 376.189 678.064 378.563 674.830 382.662 "/></g>
<g fill="#362216FE" stroke="#362216FE">
<path d="M 712.229 606.669 C 711.530 606.951 710.253 608.545 709.390 610.212 C 706.210 616.362 710.519 624.000 717.170 624.000 C 725.655 624.000 729.780 613.119 723.244 607.977 C 720.865 606.106 715.278 605.442 712.229 606.669 M 722.171 609.655 C 724.869 612.096 724.637 618.440 721.777 620.443 C 718.545 622.707 715.265 622.356 712.343 619.434 C 710.267 617.358 709.896 616.259 710.402 613.684 C 710.746 611.933 711.782 609.938 712.705 609.250 C 715.071 607.487 720.009 607.698 722.171 609.655 "/></g>
<g fill="#362216FE" stroke="#362216FE">
<path d="M 451.917 606.412 C 451.688 606.639 451.646 610.689 451.823 615.412 L 452.147 624.000 456.573 624.000 C 463.368 624.000 467.160 619.303 463.401 615.544 C 462.106 614.249 462.039 613.658 463.048 612.443 C 463.996 611.299 464.025 610.351 463.168 608.470 C 462.196 606.337 461.381 606.000 457.188 606.000 C 454.518 606.000 452.146 606.185 451.917 606.412 M 461.820 610.750 C 462.111 612.802 461.736 613.000 457.570 613.000 C 453.335 613.000 453.000 612.813 453.000 610.443 C 453.000 608.052 453.278 607.905 457.250 608.193 C 460.783 608.448 461.554 608.880 461.820 610.750 "/></g>
<g fill="#362216FE" stroke="#362216FE">
<path d="M 730.468 608.273 C 730.154 609.523 730.106 612.785 730.361 615.523 C 730.616 618.260 730.864 621.288 730.912 622.250 C 730.960 623.213 731.485 624.000 732.078 624.000 C 732.716 624.000 733.022 622.468 732.828 620.250 C 732.529 616.832 732.721 616.500 734.992 616.500 C 736.891 616.500 737.904 617.392 739.250 620.250 C 740.221 622.313 741.462 624.000 742.008 624.000 C 743.348 624.000 743.266 623.415 741.427 619.859 C 739.997 617.094 739.997 616.661 741.427 615.080 C 743.292 613.020 743.488 608.888 741.800 607.200 C 741.140 606.540 738.449 606.000 735.819 606.000 C 731.681 606.000 730.961 606.306 730.468 608.273 "/></g>
<g fill="#362216FE" stroke="#362216FE">
<path d="M 587.000 614.441 C 587.000 619.084 587.450 623.160 588.000 623.500 C 588.595 623.868 589.000 622.677 589.000 620.559 C 589.000 617.146 589.146 617.000 592.566 617.000 C 597.894 617.000 600.000 615.489 600.000 611.665 C 600.000 607.145 598.443 606.000 592.300 606.000 L 587.000 606.000 587.000 614.441 M 597.429 609.571 C 598.293 610.436 599.000 611.471 599.000 611.871 C 599.000 613.640 596.304 615.000 592.800 615.000 C 589.124 615.000 589.000 614.886 589.000 611.500 C 589.000 608.181 589.177 608.000 592.429 608.000 C 594.314 608.000 596.564 608.707 597.429 609.571 "/></g>
<g fill="#362216FE" stroke="#362216FE">
<path d="M 603.887 610.750 C 603.825 613.363 603.712 617.261 603.637 619.413 C 603.555 621.760 604.000 623.494 604.750 623.746 C 605.596 624.031 606.000 623.007 606.000 620.583 C 606.000 617.453 606.308 617.000 608.435 617.000 C 609.774 617.000 612.024 616.561 613.435 616.025 C 615.478 615.248 616.000 614.374 616.000 611.725 C 616.000 607.221 614.464 606.000 608.800 606.000 L 604.000 606.000 603.887 610.750 M 613.837 610.887 C 614.227 613.640 612.618 614.963 608.857 614.985 C 605.956 615.001 604.593 612.858 605.562 609.804 C 606.042 608.294 606.944 607.954 609.835 608.195 C 612.830 608.444 613.562 608.937 613.837 610.887 "/></g>
<g fill="#362216FE" stroke="#362216FE">
<path d="M 474.000 607.066 C 474.000 607.652 472.454 611.477 470.565 615.566 C 468.125 620.846 467.526 623.000 468.498 623.000 C 469.250 623.000 470.151 622.100 470.500 621.000 C 471.010 619.394 472.013 619.000 475.592 619.000 C 479.499 619.000 480.174 619.329 481.062 621.663 C 481.646 623.198 482.433 623.939 482.921 623.413 C 484.047 622.200 476.943 606.000 475.286 606.000 C 474.579 606.000 474.000 606.479 474.000 607.066 M 477.474 612.950 C 478.313 614.573 479.000 616.373 479.000 616.950 C 479.000 618.323 474.312 618.314 473.463 616.940 C 472.877 615.992 474.719 610.000 475.596 610.000 C 475.790 610.000 476.635 611.328 477.474 612.950 "/></g>
<g fill="#362216FE" stroke="#362216FE">
<path d="M 530.775 606.559 C 524.991 609.698 524.128 617.247 529.077 621.411 C 532.427 624.230 535.485 624.647 539.477 622.829 C 543.473 621.008 544.373 612.876 540.410 614.396 C 539.544 614.728 537.973 615.000 536.918 615.000 C 535.863 615.000 535.000 615.482 535.000 616.072 C 535.000 616.661 536.229 616.998 537.731 616.822 C 541.421 616.387 541.963 619.240 538.492 620.822 C 534.909 622.454 533.668 622.313 530.635 619.927 C 527.411 617.392 527.122 612.878 530.000 610.000 C 532.092 607.908 537.436 607.279 538.500 609.000 C 539.440 610.521 541.000 610.194 541.000 608.475 C 541.000 607.022 537.201 604.955 534.685 605.040 C 534.033 605.062 532.274 605.746 530.775 606.559 "/></g>
<g fill="#362216FE" stroke="#362216FE">
<path d="M 508.000 615.000 C 508.000 620.805 508.385 624.000 509.085 624.000 C 509.789 624.000 510.053 621.713 509.835 617.498 C 509.651 613.922 509.785 610.997 510.133 610.998 C 510.480 610.999 512.671 613.925 515.000 617.500 C 520.900 626.555 522.000 626.162 522.000 615.000 C 522.000 604.307 520.219 602.801 519.794 613.135 L 519.500 620.271 514.587 613.135 C 511.885 609.211 509.297 606.000 508.837 606.000 C 508.377 606.000 508.000 610.050 508.000 615.000 "/></g>
<g fill="#E8BAB8FE" stroke="#E8BAB8FE">
<path d="M 663.667 546.667 C 663.300 547.033 663.000 552.643 663.000 559.133 L 663.000 570.933 685.903 571.036 C 698.499 571.093 708.549 570.883 708.236 570.570 C 707.923 570.256 697.842 570.000 685.833 570.000 L 664.000 570.000 664.000 558.523 L 664.000 547.045 682.250 546.749 L 700.500 546.452 682.417 546.226 C 672.471 546.102 664.033 546.300 663.667 546.667 "/></g>
<g fill="#E8BAB8FE" stroke="#E8BAB8FE">
<path d="M 399.000 520.500 L 399.000 533.000 410.032 533.000 C 418.455 533.000 421.944 532.586 424.782 531.250 L 428.500 529.500 424.676 530.750 C 422.572 531.438 416.160 532.000 410.426 532.000 L 400.000 532.000 400.000 520.500 L 400.000 509.000 411.032 509.000 C 423.744 509.000 428.075 510.311 430.434 514.872 C 432.398 518.670 432.410 521.691 430.476 525.399 C 429.645 526.993 429.138 528.472 429.351 528.685 C 430.054 529.387 433.000 522.245 432.996 519.849 C 432.990 516.165 429.290 511.019 425.510 509.440 C 423.187 508.469 418.306 508.000 410.532 508.000 L 399.000 508.000 399.000 520.500 "/></g>
<g fill="#E8BAB8FE" stroke="#E8BAB8FE">
<path d="M 399.000 558.500 L 399.000 571.000 413.050 571.000 C 423.964 571.000 427.814 570.641 430.300 569.392 C 433.935 567.566 436.952 564.219 436.963 562.000 C 436.967 561.175 436.408 561.611 435.721 562.970 C 435.033 564.328 432.948 566.466 431.088 567.720 C 427.970 569.821 426.615 570.000 413.852 570.000 L 400.000 570.000 400.000 558.436 L 400.000 546.871 415.099 547.081 C 423.403 547.196 429.441 547.000 428.517 546.645 C 427.593 546.290 420.573 546.000 412.918 546.000 L 399.000 546.000 399.000 558.500 "/></g>
<g fill="#E8BAB8FE" stroke="#E8BAB8FE">
<path d="M 562.455 496.455 L 560.000 498.909 560.000 538.907 C 560.000 579.362 560.307 583.136 563.704 584.440 C 564.629 584.795 564.404 584.057 563.069 582.360 C 561.056 579.801 561.000 578.656 561.000 539.947 C 561.000 518.066 561.292 499.402 561.650 498.471 C 562.007 497.539 563.694 496.170 565.400 495.428 C 567.345 494.581 567.831 494.064 566.705 494.039 C 565.717 494.018 563.805 495.105 562.455 496.455 "/></g>
<g fill="#362216FE" stroke="#362216FE">
<path d="M 553.570 608.204 C 551.456 611.222 553.370 614.003 558.568 615.461 C 563.295 616.787 564.261 619.468 560.612 621.131 C 558.546 622.072 557.600 621.968 555.454 620.562 C 552.209 618.436 551.045 619.287 553.494 621.994 C 557.198 626.086 565.000 623.534 565.000 618.230 C 565.000 615.798 563.876 614.906 559.000 613.468 C 556.535 612.741 555.500 611.854 555.500 610.468 C 555.500 607.843 559.560 607.292 562.082 609.575 C 563.913 611.231 564.000 611.217 564.000 609.262 C 564.000 605.405 556.092 604.603 553.570 608.204 "/></g>
<g fill="#362216FE" stroke="#362216FE">
<path d="M 659.200 607.200 C 658.540 607.860 658.000 609.642 658.000 611.160 C 658.000 613.515 658.589 614.096 662.012 615.122 C 667.053 616.632 668.719 618.429 667.000 620.500 C 665.358 622.478 662.105 622.405 659.823 620.339 C 658.813 619.426 657.653 619.015 657.244 619.426 C 656.024 620.650 661.000 624.000 664.039 624.000 C 665.589 624.000 667.588 623.269 668.482 622.375 C 671.214 619.643 669.945 616.713 665.000 614.341 C 662.077 612.940 660.500 611.538 660.500 610.341 C 660.500 608.215 664.607 607.207 666.315 608.915 C 667.810 610.410 669.000 610.273 669.000 608.607 C 669.000 605.992 661.487 604.913 659.200 607.200 "/></g>
<g fill="#362216FE" stroke="#362216FE">
<path d="M 568.000 612.545 C 568.000 618.162 568.348 619.439 570.455 621.545 C 571.805 622.895 574.075 624.000 575.500 624.000 C 576.925 624.000 579.195 622.895 580.545 621.545 C 582.652 619.439 583.000 618.162 583.000 612.545 C 583.000 608.945 582.586 606.000 582.080 606.000 C 581.573 606.000 580.844 609.038 580.458 612.750 C 579.669 620.350 578.773 622.000 575.434 622.000 C 571.914 622.000 570.000 618.399 570.000 611.777 C 570.000 608.592 569.551 606.000 569.000 606.000 C 568.435 606.000 568.000 608.848 568.000 612.545 "/></g>
<g fill="#362216FE" stroke="#362216FE">
<path d="M 680.801 608.537 C 679.403 611.606 681.120 613.791 686.228 615.442 C 688.426 616.153 689.603 617.227 689.815 618.715 C 690.252 621.791 685.941 622.847 682.404 620.529 C 679.953 618.923 679.840 618.929 680.171 620.648 C 680.650 623.138 685.283 624.637 688.750 623.425 C 690.718 622.736 691.592 621.670 691.822 619.671 C 692.224 616.189 690.729 614.319 686.863 613.470 C 683.257 612.678 682.147 610.424 684.303 608.268 C 685.739 606.832 686.099 606.835 688.325 608.294 C 691.018 610.058 692.624 609.457 690.869 607.342 C 690.256 606.604 688.001 606.000 685.856 606.000 C 682.652 606.000 681.751 606.452 680.801 608.537 "/></g>
<g fill="#362216FE" stroke="#362216FE">
<path d="M 487.000 615.000 C 487.000 620.333 487.407 624.000 488.000 624.000 C 488.550 624.000 489.000 622.705 489.000 621.122 C 489.000 619.540 489.737 617.633 490.637 616.886 C 492.056 615.709 492.490 615.852 493.887 617.959 C 496.914 622.523 498.827 624.501 499.534 623.796 C 499.923 623.409 498.837 621.319 497.121 619.152 C 495.404 616.985 494.000 614.817 494.000 614.334 C 494.000 613.851 495.383 611.778 497.073 609.728 C 501.692 604.124 498.864 605.246 493.593 611.108 L 489.000 616.216 489.000 611.108 C 489.000 608.299 488.550 606.000 488.000 606.000 C 487.407 606.000 487.000 609.667 487.000 615.000 "/></g>
<g fill="#362216FE" stroke="#362216FE">
<path d="M 748.000 615.000 L 748.000 624.000 753.500 624.000 C 756.525 624.000 759.000 623.550 759.000 623.000 C 759.000 622.450 756.975 622.000 754.500 622.000 C 750.173 622.000 750.000 621.885 750.000 619.019 C 750.000 615.956 750.404 615.705 757.000 614.666 C 758.375 614.450 757.363 614.211 754.750 614.136 C 750.169 614.005 750.000 613.893 750.000 611.000 C 750.000 608.111 750.167 608.000 754.500 608.000 C 756.975 608.000 759.000 607.550 759.000 607.000 C 759.000 606.450 756.525 606.000 753.500 606.000 L 748.000 606.000 748.000 615.000 "/></g>
<g fill="#362216FE" stroke="#362216FE">
<path d="M 643.000 615.000 L 643.000 624.000 648.500 624.000 C 651.525 624.000 654.000 623.550 654.000 623.000 C 654.000 622.450 652.002 622.000 649.559 622.000 C 644.722 622.000 643.530 621.055 644.503 617.991 C 644.993 616.448 646.019 616.000 649.067 616.000 C 651.230 616.000 653.000 615.550 653.000 615.000 C 653.000 614.450 651.230 614.000 649.067 614.000 C 646.019 614.000 644.993 613.552 644.503 612.009 C 643.533 608.953 644.720 608.000 649.500 608.000 C 651.910 608.000 654.160 607.550 654.500 607.000 C 654.886 606.375 652.844 606.000 649.059 606.000 L 643.000 606.000 643.000 615.000 "/></g>
<g fill="#E8BAB8FE" stroke="#E8BAB8FE">
<path d="M 646.227 539.846 C 646.023 573.430 646.171 577.481 647.697 580.064 C 648.630 581.644 650.082 583.201 650.924 583.524 C 651.777 583.852 651.359 582.947 649.976 581.476 L 647.500 578.841 646.977 540.671 L 646.453 502.500 646.227 539.846 "/></g>
<g fill="#E8BAB8FE" stroke="#E8BAB8FE">
<path d="M 747.214 614.750 L 747.500 624.500 753.486 624.500 C 758.392 624.500 759.533 624.184 759.810 622.750 C 760.100 621.243 759.407 621.025 754.823 621.180 L 749.500 621.360 754.250 621.735 C 760.815 622.253 760.237 624.000 753.500 624.000 L 748.000 624.000 748.000 615.000 L 748.000 606.000 753.500 606.000 C 756.525 606.000 759.000 606.450 759.000 607.000 C 759.000 607.550 756.975 608.000 754.500 608.000 C 750.167 608.000 750.000 608.111 750.000 611.000 C 750.000 613.937 750.100 613.996 754.750 613.825 L 759.500 613.651 755.250 613.268 C 751.888 612.965 751.000 612.491 751.000 611.000 C 751.000 609.498 751.862 609.053 755.241 608.807 C 758.335 608.583 759.573 608.027 759.815 606.750 C 760.104 605.226 759.292 605.000 753.537 605.000 L 746.928 605.000 747.214 614.750 "/></g>
<g fill="#E8BAB8FE" stroke="#E8BAB8FE">
<path d="M 635.688 605.646 C 635.309 606.024 635.000 610.308 635.000 615.167 C 635.000 623.388 635.141 624.000 637.038 624.000 C 638.960 624.000 639.059 623.484 638.788 614.831 C 638.523 606.398 637.618 603.716 635.688 605.646 M 638.000 614.500 C 638.000 619.500 637.588 623.000 637.000 623.000 C 636.412 623.000 636.000 619.500 636.000 614.500 C 636.000 609.500 636.412 606.000 637.000 606.000 C 637.588 606.000 638.000 609.500 638.000 614.500 "/></g>
<g fill="#E8BAB8FE" stroke="#E8BAB8FE">
<path d="M 663.215 520.750 L 663.000 533.000 681.045 533.000 C 698.871 533.000 699.121 533.030 701.545 535.455 C 702.895 536.805 704.000 537.480 704.000 536.955 C 704.000 536.430 703.100 535.100 702.000 534.000 C 700.148 532.148 698.667 532.000 682.032 532.000 L 664.063 532.000 663.747 520.250 L 663.430 508.500 663.215 520.750 "/></g>
<g fill="#E8BAB8FE" stroke="#E8BAB8FE">
<path d="M 710.969 574.729 C 712.157 577.183 711.425 581.598 709.639 582.759 C 709.013 583.167 695.900 583.739 680.500 584.031 L 652.500 584.561 680.139 584.781 C 705.202 584.980 707.971 584.837 709.847 583.250 C 712.726 580.814 713.451 576.952 711.489 574.500 C 709.924 572.543 709.913 572.548 710.969 574.729 "/></g>
<g fill="#E8BAB8FE" stroke="#E8BAB8FE">
<path d="M 620.000 494.452 C 618.625 495.207 608.798 504.866 598.162 515.917 C 587.527 526.968 578.371 535.729 577.816 535.386 C 577.245 535.033 576.958 535.542 577.154 536.559 C 577.405 537.864 583.100 532.576 597.951 517.247 C 617.090 497.492 621.068 494.000 624.436 494.000 C 626.888 494.000 630.149 497.502 630.978 501.024 C 631.747 504.295 631.801 504.334 631.898 501.673 C 631.966 499.790 631.024 497.870 629.077 495.923 C 625.866 492.712 623.785 492.375 620.000 494.452 "/></g>
<g fill="#E8BAB8FE" stroke="#E8BAB8FE">
<path d="M 680.098 494.969 C 710.545 495.555 710.616 495.570 711.276 501.826 L 711.664 505.500 711.832 501.823 C 711.964 498.926 711.440 497.705 709.365 496.073 C 706.830 494.078 705.706 494.008 679.615 494.219 L 652.500 494.438 680.098 494.969 "/></g>
<g fill="#E8BAB8FE" stroke="#E8BAB8FE">
<path d="M 582.250 553.952 C 575.222 561.750 575.566 562.284 582.798 554.802 L 588.595 548.804 603.890 566.902 C 612.302 576.856 619.646 585.000 620.211 585.000 C 620.775 585.000 619.194 582.898 616.697 580.329 C 614.200 577.760 607.059 569.470 600.828 561.907 C 594.598 554.344 589.050 548.149 588.500 548.142 C 587.950 548.134 585.138 550.749 582.250 553.952 "/></g>
<g fill="#362216FE" stroke="#362216FE">
<path d="M 620.000 615.000 L 620.000 624.000 626.000 624.000 C 629.333 624.000 632.000 623.556 632.000 623.000 C 632.000 622.450 629.750 622.000 627.000 622.000 L 622.000 622.000 622.000 614.000 C 622.000 609.333 621.583 606.000 621.000 606.000 C 620.407 606.000 620.000 609.667 620.000 615.000 "/></g>
<g fill="#362216FE" stroke="#362216FE">
<path d="M 694.000 607.000 C 694.000 607.550 695.125 608.000 696.500 608.000 C 698.943 608.000 699.000 608.171 699.000 615.441 C 699.000 619.534 699.450 623.160 700.000 623.500 C 700.635 623.892 701.000 621.177 701.000 616.059 C 701.000 608.129 701.040 608.000 703.500 608.000 C 704.875 608.000 706.000 607.550 706.000 607.000 C 706.000 606.444 703.333 606.000 700.000 606.000 C 696.667 606.000 694.000 606.444 694.000 607.000 "/></g>
<g fill="#E8BAB8FE" stroke="#E8BAB8FE">
<path d="M 386.306 496.598 L 383.500 499.195 386.483 497.021 C 389.351 494.930 390.274 494.856 410.483 495.102 C 422.042 495.243 429.981 495.053 428.125 494.679 C 426.269 494.306 416.731 494.000 406.931 494.000 C 389.132 494.000 389.108 494.003 386.306 496.598 "/></g>
<g fill="#E8BAB8FE" stroke="#E8BAB8FE">
<path d="M 619.214 614.750 L 619.500 624.500 626.000 624.500 C 631.111 624.500 632.500 624.179 632.500 623.000 C 632.500 621.852 631.267 621.509 627.250 621.538 L 622.000 621.577 627.000 621.788 C 634.104 622.089 633.240 624.000 626.000 624.000 L 620.000 624.000 620.000 615.083 C 620.000 608.886 620.381 606.013 621.250 605.662 C 621.983 605.366 621.762 605.125 620.714 605.079 C 619.097 605.007 618.955 605.925 619.214 614.750 "/></g>
<g fill="#E8BAB8FE" stroke="#E8BAB8FE">
<path d="M 387.619 583.922 C 388.434 584.807 394.393 585.111 409.562 585.042 C 421.016 584.989 430.612 584.721 430.887 584.447 C 431.162 584.172 421.855 583.989 410.206 584.040 C 398.557 584.092 388.457 583.813 387.763 583.420 C 386.817 582.886 386.781 583.012 387.619 583.922 "/></g>
<g fill="#E8BAB8FE" stroke="#E8BAB8FE">
<path d="M 502.208 614.677 L 502.415 624.500 502.745 615.250 C 502.938 609.828 503.498 606.000 504.098 606.000 C 504.733 606.000 505.057 609.505 504.954 615.250 C 504.862 620.338 505.080 623.785 505.438 622.912 C 505.797 622.038 505.957 617.768 505.795 613.422 C 505.549 606.832 505.210 605.466 503.750 605.188 C 502.168 604.886 502.020 605.798 502.208 614.677 "/></g>
<g fill="#E8BAB8FE" stroke="#E8BAB8FE">
<path d="M 642.214 614.750 L 642.500 624.500 646.250 624.450 C 649.899 624.401 649.905 624.395 646.500 624.200 L 643.000 624.000 643.000 615.048 L 643.000 606.095 649.250 605.740 L 655.500 605.385 648.714 605.193 L 641.928 605.000 642.214 614.750 "/></g>
<g fill="#E8BAB8FE" stroke="#E8BAB8FE">
<path d="M 759.139 511.164 C 755.877 512.416 752.257 514.844 749.896 517.361 L 746.016 521.500 749.958 517.841 C 756.016 512.216 763.689 509.761 774.000 510.148 C 778.675 510.324 781.375 510.143 780.000 509.747 C 775.123 508.343 764.626 509.056 759.139 511.164 "/></g>
<g fill="#E8BAB8FE" stroke="#E8BAB8FE">
<path d="M 792.702 518.001 C 799.395 525.167 801.253 530.483 800.867 541.361 C 800.689 546.387 800.865 549.375 801.258 548.000 C 801.651 546.625 801.974 542.350 801.977 538.500 C 801.981 529.798 799.136 523.236 792.870 517.501 L 788.500 513.502 792.702 518.001 "/></g>
<g fill="#362216FE" stroke="#362216FE">
<path d="M 503.000 615.059 C 503.000 620.844 503.361 623.895 504.000 623.500 C 504.550 623.160 505.000 619.084 505.000 614.441 C 505.000 609.480 504.588 606.000 504.000 606.000 C 503.407 606.000 503.000 609.686 503.000 615.059 "/></g>
<g fill="#E8BAB8FE" stroke="#E8BAB8FE">
<path d="M 699.750 605.713 C 703.188 605.924 706.000 606.524 706.000 607.048 C 706.000 607.571 704.875 608.000 703.500 608.000 C 701.019 608.000 701.002 608.063 701.201 616.250 L 701.402 624.500 701.742 616.814 C 702.053 609.770 702.266 609.102 704.291 608.814 C 705.506 608.641 706.500 607.825 706.500 607.000 C 706.500 605.829 705.074 605.481 700.000 605.416 L 693.500 605.331 699.750 605.713 "/></g>
<g fill="#362216FE" stroke="#362216FE">
<path d="M 636.000 614.500 C 636.000 619.500 636.412 623.000 637.000 623.000 C 637.588 623.000 638.000 619.500 638.000 614.500 C 638.000 609.500 637.588 606.000 637.000 606.000 C 636.412 606.000 636.000 609.500 636.000 614.500 "/></g>
<g fill="#E8BAB8FE" stroke="#E8BAB8FE">
<path d="M 486.425 606.334 C 486.144 607.067 486.046 611.450 486.207 616.073 C 486.449 623.018 486.793 624.534 488.186 624.800 C 489.489 625.049 489.943 624.256 490.186 621.311 C 490.436 618.278 490.908 617.497 492.500 617.484 C 493.928 617.472 494.130 617.234 493.206 616.648 C 491.269 615.420 489.000 617.835 489.000 621.122 C 489.000 622.705 488.550 624.000 488.000 624.000 C 486.458 624.000 486.699 606.288 488.250 605.662 C 489.229 605.267 489.222 605.141 488.219 605.079 C 487.514 605.036 486.707 605.600 486.425 606.334 "/></g>
<g fill="#E8BAB8FE" stroke="#E8BAB8FE">
<path d="M 489.750 550.332 C 489.338 551.339 489.000 552.352 489.000 552.582 C 489.000 552.812 495.638 552.906 503.750 552.792 L 518.500 552.584 504.500 552.042 C 492.963 551.595 490.500 551.236 490.500 550.000 C 490.500 548.962 490.269 549.064 489.750 550.332 "/></g>
<g fill="#E8BAB8FE" stroke="#E8BAB8FE">
<path d="M 604.470 542.500 C 607.203 545.800 613.503 553.102 618.470 558.728 C 624.068 565.068 622.749 563.250 615.000 553.944 C 608.125 545.688 601.825 538.385 601.000 537.716 C 600.175 537.047 601.736 539.200 604.470 542.500 "/></g>
<g fill="#E8BAB8FE" stroke="#E8BAB8FE">
<path d="M 434.500 497.659 C 442.638 501.941 446.123 507.595 447.038 518.000 L 447.698 525.500 447.849 519.218 C 448.026 511.847 446.243 506.901 441.699 502.165 C 438.643 498.978 434.003 495.955 432.300 496.040 C 431.860 496.062 432.850 496.791 434.500 497.659 "/></g>
<g fill="#E8BAB8FE" stroke="#E8BAB8FE">
<path d="M 670.596 373.250 C 668.686 375.038 667.874 375.962 668.792 375.304 C 670.114 374.357 670.796 374.411 672.068 375.562 C 673.484 376.843 673.887 376.782 675.459 375.045 C 677.226 373.093 676.985 370.000 675.066 370.000 C 674.518 370.000 672.506 371.463 670.596 373.250 "/></g>
<g fill="#E8BAB8FE" stroke="#E8BAB8FE">
<path d="M 755.000 584.740 C 757.427 585.833 762.179 586.393 770.500 586.566 L 782.500 586.815 770.500 586.038 C 763.900 585.611 757.233 584.753 755.685 584.131 C 751.494 582.447 750.961 582.921 755.000 584.740 "/></g>
<g fill="#E8BAB8FE" stroke="#E8BAB8FE">
<path d="M 821.250 539.068 C 821.113 543.781 820.230 550.081 819.290 553.068 C 816.973 560.423 817.078 561.593 819.507 555.500 C 821.032 551.675 821.500 548.150 821.500 540.500 C 821.500 531.651 821.471 531.486 821.250 539.068 "/></g>
<g fill="#E8BAB8FE" stroke="#E8BAB8FE">
<path d="M 501.708 523.522 C 498.114 530.851 498.315 531.990 501.969 525.000 L 504.844 519.500 508.966 528.000 C 511.232 532.675 512.815 535.606 512.484 534.513 C 511.399 530.938 505.513 518.039 504.958 518.019 C 504.660 518.009 503.198 520.485 501.708 523.522 "/></g>
<g fill="#E8BAB8FE" stroke="#E8BAB8FE">
<path d="M 586.667 605.667 C 585.744 606.589 585.823 623.999 586.750 624.002 C 587.163 624.004 587.356 619.978 587.180 615.057 L 586.861 606.109 592.180 605.740 L 597.500 605.370 592.417 605.185 C 589.621 605.083 587.033 605.300 586.667 605.667 "/></g>
<g fill="#E8BAB8FE" stroke="#E8BAB8FE">
<path d="M 567.193 611.750 L 567.385 618.500 567.740 612.250 C 567.936 608.813 568.502 606.000 569.000 606.000 C 569.498 606.000 570.064 608.813 570.260 612.250 L 570.615 618.500 570.807 611.750 C 570.983 605.602 570.821 605.000 569.000 605.000 C 567.179 605.000 567.017 605.602 567.193 611.750 "/></g>
<g fill="#E8BAB8FE" stroke="#E8BAB8FE">
<path d="M 498.809 495.750 C 496.172 498.577 493.969 502.242 494.040 503.684 C 494.062 504.133 494.792 503.150 495.662 501.500 C 498.392 496.321 501.122 494.000 504.483 494.000 C 508.246 494.000 510.141 495.349 512.909 500.000 C 514.055 501.925 514.994 503.103 514.996 502.618 C 515.003 500.965 510.827 494.978 508.976 493.987 C 505.558 492.158 501.504 492.860 498.809 495.750 "/></g>
<g fill="#E8BAB8FE" stroke="#E8BAB8FE">
<path d="M 478.443 576.126 C 475.398 582.878 473.266 585.000 469.524 585.000 C 467.691 585.000 465.252 584.213 464.102 583.250 L 462.012 581.500 464.006 583.750 C 466.231 586.260 471.426 586.754 474.111 584.710 C 475.857 583.380 481.396 573.062 480.724 572.390 C 480.498 572.164 479.472 573.846 478.443 576.126 "/></g>
</svg>
